<svg width="101" height="30" viewBox="0 0 101 30" fill="none" xmlns="http://www.w3.org/2000/svg">
<rect width="9.85587" height="9.85587" transform="matrix(0.712194 0.701983 -0.712194 0.701983 15.2183 0)" fill="white"/>
<path d="M23.417 8.0813L30.4363 14.9999L23.417 21.9186L16.3977 14.9999L23.417 8.0813Z" fill="white"/>
<rect width="9.85587" height="9.85587" transform="matrix(0.712194 0.701983 -0.712194 0.701983 15.2183 16.1626)" fill="white"/>
<rect width="9.85587" height="9.85587" transform="matrix(0.712194 0.701983 -0.712194 0.701983 7.01953 8.0813)" fill="white"/>
<ellipse cx="15.511" cy="14.7114" rx="4.38987" ry="4.32692" fill="#B4436D"/>
<path d="M41.5089 24V6.24H49.7169C50.8689 6.24 51.8369 6.44 52.6209 6.84C53.4209 7.24 54.0289 7.776 54.4449 8.448C54.8609 9.104 55.0689 9.832 55.0689 10.632C55.0689 11.416 54.9249 12.072 54.6369 12.6C54.3489 13.112 53.9969 13.528 53.5809 13.848C53.1809 14.152 52.7889 14.36 52.4049 14.472V14.664C52.8369 14.76 53.3169 14.968 53.8449 15.288C54.3729 15.608 54.8289 16.064 55.2129 16.656C55.5969 17.248 55.7889 18.016 55.7889 18.96C55.7889 19.792 55.5889 20.592 55.1889 21.36C54.8049 22.128 54.1729 22.76 53.2929 23.256C52.4289 23.752 51.3009 24 49.9089 24H41.5089ZM49.0929 9.336H45.2049V13.464H49.0929C49.9249 13.464 50.5329 13.264 50.9169 12.864C51.3009 12.464 51.4929 11.976 51.4929 11.4C51.4929 10.84 51.3009 10.36 50.9169 9.96C50.5329 9.544 49.9249 9.336 49.0929 9.336ZM49.3809 16.296H45.2049V20.904H49.3809C50.3249 20.904 51.0049 20.68 51.4209 20.232C51.8529 19.768 52.0689 19.216 52.0689 18.576C52.0689 17.952 51.8529 17.416 51.4209 16.968C51.0049 16.52 50.3249 16.296 49.3809 16.296ZM64.3805 24.24C63.2605 24.24 62.2925 24.056 61.4765 23.688C60.6605 23.304 59.9885 22.8 59.4605 22.176C58.9325 21.536 58.5325 20.824 58.2605 20.04C58.0045 19.256 57.8765 18.448 57.8765 17.616C57.8765 16.816 57.9965 16.032 58.2365 15.264C58.4925 14.48 58.8765 13.768 59.3885 13.128C59.9165 12.488 60.5805 11.984 61.3805 11.616C62.1965 11.232 63.1565 11.04 64.2605 11.04C65.4285 11.04 66.4605 11.296 67.3565 11.808C68.2685 12.32 68.9805 13.08 69.4925 14.088C70.0045 15.08 70.2605 16.288 70.2605 17.712V18.6H61.5485C61.5965 19.368 61.8605 20.032 62.3405 20.592C62.8365 21.152 63.5165 21.432 64.3805 21.432C64.8765 21.432 65.2765 21.36 65.5805 21.216C65.9005 21.056 66.1485 20.88 66.3245 20.688C66.5005 20.48 66.6205 20.296 66.6845 20.136C66.7485 19.976 66.7805 19.896 66.7805 19.896H70.1405C70.1405 19.896 70.1005 20.048 70.0205 20.352C69.9565 20.64 69.8125 21 69.5885 21.432C69.3645 21.864 69.0365 22.296 68.6045 22.728C68.1885 23.16 67.6365 23.52 66.9485 23.808C66.2605 24.096 65.4045 24.24 64.3805 24.24ZM61.5485 16.392H66.7565C66.7085 15.512 66.4445 14.856 65.9645 14.424C65.4845 13.992 64.8925 13.776 64.1885 13.776C63.4845 13.776 62.8845 14.008 62.3885 14.472C61.8925 14.92 61.6125 15.56 61.5485 16.392ZM78.9793 24.24C77.8593 24.24 76.8833 24.056 76.0513 23.688C75.2193 23.304 74.5313 22.8 73.9873 22.176C73.4433 21.552 73.0353 20.848 72.7633 20.064C72.4913 19.264 72.3553 18.456 72.3553 17.64C72.3553 16.824 72.4913 16.024 72.7633 15.24C73.0353 14.456 73.4433 13.752 73.9873 13.128C74.5313 12.488 75.2193 11.984 76.0513 11.616C76.8833 11.232 77.8593 11.04 78.9793 11.04C80.1153 11.04 81.0513 11.208 81.7873 11.544C82.5233 11.864 83.1073 12.272 83.5393 12.768C83.9873 13.248 84.3153 13.736 84.5233 14.232C84.7313 14.712 84.8593 15.12 84.9073 15.456C84.9713 15.776 85.0033 15.936 85.0033 15.936H81.5953C81.5953 15.936 81.5633 15.84 81.4993 15.648C81.4513 15.44 81.3393 15.208 81.1633 14.952C81.0033 14.68 80.7553 14.448 80.4193 14.256C80.0833 14.048 79.6353 13.944 79.0753 13.944C78.3873 13.944 77.8113 14.12 77.3473 14.472C76.8993 14.808 76.5633 15.256 76.3393 15.816C76.1153 16.376 76.0033 16.984 76.0033 17.64C76.0033 18.296 76.1153 18.904 76.3393 19.464C76.5633 20.024 76.8993 20.48 77.3473 20.832C77.8113 21.168 78.3873 21.336 79.0753 21.336C79.6353 21.336 80.0833 21.24 80.4193 21.048C80.7553 20.84 81.0033 20.608 81.1633 20.352C81.3393 20.08 81.4513 19.848 81.4993 19.656C81.5633 19.448 81.5953 19.344 81.5953 19.344H85.0033C85.0033 19.344 84.9713 19.512 84.9073 19.848C84.8593 20.168 84.7313 20.576 84.5233 21.072C84.3153 21.552 83.9873 22.04 83.5393 22.536C83.1073 23.016 82.5233 23.424 81.7873 23.76C81.0513 24.08 80.1153 24.24 78.9793 24.24ZM90.5602 24L85.9042 11.28H89.5522L92.5282 19.896L95.3842 11.28H99.0562L94.3762 24H90.5602Z" fill="white"/>
</svg>
